<?xml version="1.0" standalone="no"?>
<!DOCTYPE svg PUBLIC "-//W3C//DTD SVG 20010904//EN"
 "http://www.w3.org/TR/2001/REC-SVG-20010904/DTD/svg10.dtd">
<svg version="1.0" xmlns="http://www.w3.org/2000/svg"
 width="260.000000pt" height="260.000000pt" viewBox="0 0 260.000000 260.000000"
 preserveAspectRatio="xMidYMid meet">
<metadata>
Created by potrace 1.11, written by Peter Selinger 2001-2013
</metadata>
<g transform="translate(0.000000,260.000000) scale(0.100000,-0.100000)"
fill="#000000" stroke="none">
<path d="M599 2237 c0 -1 -1 -420 -2 -930 -1 -629 1 -931 8 -937 6 -5 177 -7
380 -6 344 3 375 5 444 25 170 50 310 156 416 317 171 257 207 663 89 1012
-74 222 -207 376 -397 462 -110 49 -144 53 -554 56 -211 1 -383 1 -384 1z
m775 -172 c106 -22 263 -114 254 -149 -4 -16 -321 -476 -328 -476 -6 1 -453
616 -458 631 -6 16 454 10 532 -6z m-426 -416 c99 -136 183 -252 186 -258 5
-8 -47 -11 -186 -11 l-193 0 0 260 c0 143 3 259 7 258 4 -2 88 -114 186 -249z
m840 6 c49 -144 65 -305 49 -485 -9 -101 -13 -122 -46 -216 -70 -205 -245
-375 -428 -418 -59 -13 -493 -24 -493 -11 0 3 98 147 218 320 119 173 314 454
432 625 l214 311 17 -33 c9 -18 26 -60 37 -93z m-642 -438 c2 -2 -47 -76 -109
-165 -61 -89 -148 -214 -191 -277 -44 -63 -82 -115 -85 -115 -3 0 -6 125 -6
278 l0 277 50 5 c55 5 335 3 341 -3z"/>
</g>
</svg>
